Coordinates
version=1
nRows=9
nColumns=24
inDegrees=yes

Units are S.I. units (second, meters, Newtons, ...)
Angles are in degrees.

endheader
time	pelvis_tilt	pelvis_list	pelvis_rotation	pelvis_tx	pelvis_ty	pelvis_tz	hip_flexion_r	hip_adduction_r	hip_rotation_r	knee_angle_r	ankle_angle_r	subtalar_angle_r	mtp_angle_r	hip_flexion_l	hip_adduction_l	hip_rotation_l	knee_angle_l	ankle_angle_l	subtalar_angle_l	mtp_angle_l	lumbar_extension	lumbar_bending	lumbar_rotation
      4.75000000	    -14.66643591	     11.79487018	    -11.51237293	      0.61138747	     -0.02157101	      0.05605670	     19.21291769	    -15.85964736	     -1.95263850	    -55.03668059	    -29.77168891	     18.41827389	     40.20211255	     28.41104389	     11.02041771	    -15.11748610	    -11.99329909	     -9.43606386	      1.06366709	      8.49983680	     16.20711427	    -12.32300846	      9.39084814
      4.75500000	    -14.43080095	     11.70037726	    -11.45389999	      0.61737142	     -0.02051455	      0.05575793	     19.67185416	    -15.80880481	     -1.70367412	    -55.97216956	    -28.65551780	     18.14860497	     39.97764456	     27.55486387	     11.17925846	    -15.02053800	    -11.58376982	     -9.19009054	      1.35276853	      8.69547138	     15.98491659	    -12.26346048	      9.17284211
      4.76000000	    -14.33135487	     11.61706316	    -11.30313816	      0.62337241	     -0.01963665	      0.05530680	     20.25057365	    -15.77718233	     -1.54491444	    -56.84415860	    -27.63779589	     17.91363941	     40.13879016	     26.84785627	     11.36016293	    -14.78526717	    -11.19339474	     -8.99165884	      1.52058044	      8.78867269	     15.90161040	    -12.20700647	      8.87677759
      4.76500000	    -14.18192349	     11.50275953	    -11.17192403	      0.62931706	     -0.01866155	      0.05491916	     20.76069449	    -15.70224378	     -1.38115117	    -57.63871217	    -26.69253766	     17.70725655	     40.31577700	     26.07338737	     11.50840204	    -14.55023256	    -10.78435725	     -8.81220524	      1.70906388	      8.87571774	     15.75512162	    -12.13061482	      8.57766879
      4.77000000	    -14.09814315	     11.33901088	    -11.04560506	      0.63521092	     -0.01774141	      0.05452197	     21.32131584	    -15.53956940	     -1.19680177	    -58.36609913	    -25.78848306	     17.60826446	     40.54155560	     25.37087785	     11.58318265	    -14.28635242	    -10.40208100	     -8.62433985	      1.84968114	      8.94176123	     15.66877771	    -11.98022551	      8.31279352
      4.77500000	    -13.85517562	     11.18005647	    -10.87432263	      0.64120599	     -0.01667112	      0.05407450	     21.65991499	    -15.45558479	     -1.12020464	    -58.99606289	    -24.97452620	     17.53667695	     40.92196688	     24.46653200	     11.72730895	    -13.96725613	     -9.97287778	     -8.44478071	      2.02057621	      8.99448564	     15.41154081	    -11.88937545	      7.93991707
      4.78000000	    -13.67445025	     10.95550534	    -10.71875688	      0.64712976	     -0.01563559	      0.05361474	     22.04079364	    -15.25843278	     -1.00797930	    -59.54425563	    -24.21514352	     17.54058111	     41.45942157	     23.62688732	     11.77911904	    -13.58633021	     -9.56748571	     -8.26235560	      2.09555268	      8.99481625	     15.20590099	    -11.70463819	      7.61299657
      4.78500000	    -13.53899937	     10.74154418	    -10.53978080	      0.65300848	     -0.01468656	      0.05314959	     22.46795071	    -15.06499241	     -0.91957143	    -60.05277348	    -23.48819118	     17.55423371	     42.05833650	     22.84569236	     11.82972598	    -13.19155566	     -9.17592305	     -8.09531969	      2.15235366	      8.95954818	     15.04859214	    -11.52953435	      7.26966658
      4.79000000	    -13.49800716	     10.54548148	    -10.41008144	      0.65877297	     -0.01389141	      0.05280036	     23.04090098	    -14.82336389	     -0.76329224	    -60.57502280	    -22.71390851	     17.54617334	     42.32261552	     22.19506995	     11.83659509	    -12.91974936	     -8.80880741	     -7.93148476	      2.24697465	      8.98106009	     15.00506648	    -11.33788105	      7.03112760
